<svg id="Layer_1" data-name="Layer 1" xmlns="http://www.w3.org/2000/svg" viewBox="0 0 184.94 184.94"><defs><style>.cls-1{fill:#fff;}</style></defs><title>Assure V2</title><path class="cls-1" d="M302.47,143.06a92.47,92.47,0,1,0,92.47,92.47A92.47,92.47,0,0,0,302.47,143.06Zm52.81,120.16a55.52,55.52,0,0,1-20.22,25.85l-.26-.36A56.56,56.56,0,0,1,316.9,297a42.62,42.62,0,0,1-14.35,2.21,45.69,45.69,0,0,1-13.06-1.74l-.25-.07a54.09,54.09,0,0,1-17-7.83l-.26.44-2.27-1.7c-11.77-8.82-18.88-20.62-20.08-25l-.28-1,54-90.35,52.33,90.25Z" transform="translate(-210 -143.06)"/><path class="cls-1" d="M254.79,262.91c1.44,3.5,6.59,12.07,15.66,19.55l31.73-55,32.21,55.79a52.07,52.07,0,0,0,15.71-20.61l-46.86-80.84Z" transform="translate(-210 -143.06)"/><path class="cls-1" d="M321.87,289.51l-19.34-29.25-20,29.2a24.47,24.47,0,0,0,9.15,4.25l.06,0,1.35.27v-6.79h1.26v7l1.33.21V283.57H297v11c.49.05,1,.1,1.46.13V276.29h1.26v18.5c.79,0,1.58.06,2.38,0V273.69h1.26v21.12c.75,0,1.5-.06,2.26-.12v-18.4h1.26v18.29c.48-.05,1-.1,1.46-.17V283.57h1.26v10.64l1.33-.22v-6.78h1.26v6.57c1.18-.23,2.35-.5,3.49-.8A19.83,19.83,0,0,0,321.87,289.51Z" transform="translate(-210 -143.06)"/><path class="cls-1" d="M333.61,287l0,0-6.78-11.75-24.63-42.67-24.64,42.67-6.36,11-1.25,1.66c.75.56,1.5,1.1,2.27,1.62l30-51.94,29.23,50.64,2.18-1.26,1.21,1.75h0Z" transform="translate(-210 -143.06)"/></svg>